<svg xmlns="http://www.w3.org/2000/svg" xmlns:xlink="http://www.w3.org/1999/xlink" width="500" zoomAndPan="magnify" viewBox="0 0 375 374.999991" height="500" preserveAspectRatio="xMidYMid meet" version="1.0"><defs><clipPath id="138f1f7f08"><path d="M 69.308594 8 L 260 8 L 260 367 L 69.308594 367 Z M 69.308594 8 " clip-rule="nonzero"/></clipPath></defs><g clip-path="url(#138f1f7f08)"><path fill="#000000" d="M 122.199219 196.75 C 122.082031 196.273438 121.949219 195.804688 121.835938 195.324219 C 121.351562 193.28125 120.929688 191.214844 120.566406 189.125 C 120.484375 188.671875 120.425781 188.210938 120.351562 187.753906 C 120.078125 186.054688 119.839844 184.34375 119.644531 182.621094 C 119.574219 182.011719 119.503906 181.398438 119.441406 180.785156 C 119.246094 178.785156 119.085938 176.773438 118.992188 174.75 C 118.984375 174.59375 118.96875 174.4375 118.960938 174.28125 C 118.863281 172.105469 118.84375 169.917969 118.859375 167.722656 C 118.863281 167.109375 118.882812 166.496094 118.894531 165.882812 C 118.933594 164.152344 119.007812 162.421875 119.113281 160.683594 C 119.148438 160.132812 119.171875 159.582031 119.210938 159.03125 C 119.375 156.824219 119.585938 154.613281 119.855469 152.402344 C 119.90625 152.011719 119.96875 151.621094 120.019531 151.230469 C 120.289062 149.183594 120.601562 147.140625 120.960938 145.09375 C 121.058594 144.515625 121.15625 143.941406 121.265625 143.363281 C 121.703125 141.015625 122.1875 138.675781 122.746094 136.335938 C 122.863281 135.84375 122.996094 135.355469 123.117188 134.859375 C 123.496094 133.339844 123.890625 131.820312 124.316406 130.308594 C 124.511719 129.605469 124.71875 128.910156 124.925781 128.210938 C 125.320312 126.871094 125.738281 125.53125 126.171875 124.199219 C 126.410156 123.460938 126.652344 122.722656 126.902344 121.988281 C 127.285156 120.875 127.683594 119.765625 128.089844 118.65625 C 128.367188 117.902344 128.640625 117.148438 128.929688 116.398438 C 129.375 115.238281 129.847656 114.085938 130.320312 112.9375 C 130.605469 112.246094 130.878906 111.554688 131.171875 110.867188 C 131.636719 109.777344 132.132812 108.699219 132.621094 107.621094 C 132.933594 106.941406 133.230469 106.257812 133.546875 105.582031 C 134.132812 104.347656 134.746094 103.125 135.363281 101.902344 C 135.617188 101.394531 135.859375 100.878906 136.121094 100.371094 C 137.011719 98.65625 137.929688 96.957031 138.882812 95.273438 C 139 95.0625 139.132812 94.855469 139.253906 94.644531 C 140.089844 93.175781 140.945312 91.722656 141.832031 90.285156 C 142.132812 89.792969 142.457031 89.316406 142.761719 88.828125 C 143.507812 87.648438 144.257812 86.46875 145.035156 85.308594 C 145.453125 84.6875 145.890625 84.078125 146.316406 83.460938 C 147.011719 82.457031 147.707031 81.453125 148.421875 80.46875 C 148.847656 79.882812 149.289062 79.308594 149.722656 78.730469 C 150.570312 77.605469 151.429688 76.488281 152.304688 75.386719 C 152.785156 74.785156 153.269531 74.1875 153.757812 73.59375 C 154.640625 72.519531 155.542969 71.460938 156.457031 70.414062 C 156.910156 69.894531 157.359375 69.375 157.820312 68.863281 C 159.460938 67.039062 161.140625 65.257812 162.871094 63.527344 C 163.203125 63.195312 163.542969 62.875 163.875 62.550781 C 165.382812 61.074219 166.921875 59.636719 168.492188 58.238281 C 168.929688 57.847656 169.363281 57.449219 169.804688 57.066406 C 171.457031 55.632812 173.132812 54.226562 174.851562 52.878906 C 186.695312 43.625 199.007812 37.402344 211.101562 34.078125 C 213.109375 33.527344 215.113281 33.074219 217.105469 32.683594 C 217.75 32.554688 218.386719 32.46875 219.027344 32.359375 C 220.5 32.105469 221.96875 31.867188 223.429688 31.703125 C 223.734375 31.667969 224.039062 31.632812 224.347656 31.601562 C 226.179688 31.417969 228 31.296875 229.808594 31.246094 C 230.105469 31.238281 230.398438 31.234375 230.695312 31.230469 C 232.480469 31.203125 234.25 31.238281 236.007812 31.34375 C 236.644531 31.382812 237.273438 31.464844 237.910156 31.519531 C 239.1875 31.628906 240.464844 31.753906 241.722656 31.9375 C 242.449219 32.042969 243.167969 32.179688 243.886719 32.308594 C 245.078125 32.519531 246.265625 32.75 247.4375 33.027344 C 248.03125 33.167969 248.621094 33.3125 249.210938 33.46875 C 250.484375 33.808594 251.742188 34.191406 252.988281 34.605469 C 253.480469 34.769531 253.976562 34.914062 254.460938 35.089844 C 256.195312 35.710938 257.90625 36.390625 259.578125 37.164062 L 210.011719 14.304688 C 208.523438 13.617188 207.003906 12.988281 205.464844 12.417969 C 205.277344 12.347656 205.082031 12.300781 204.894531 12.230469 C 204.410156 12.058594 203.914062 11.910156 203.425781 11.746094 C 202.179688 11.332031 200.921875 10.953125 199.648438 10.613281 C 199.058594 10.457031 198.46875 10.308594 197.875 10.167969 C 197.414062 10.058594 196.964844 9.921875 196.5 9.824219 C 195.785156 9.671875 195.046875 9.578125 194.324219 9.449219 C 193.601562 9.320312 192.886719 9.183594 192.160156 9.078125 C 190.898438 8.898438 189.621094 8.769531 188.34375 8.660156 C 187.707031 8.605469 187.082031 8.523438 186.441406 8.484375 C 186.292969 8.476562 186.152344 8.453125 186.003906 8.445312 C 184.394531 8.359375 182.765625 8.347656 181.128906 8.375 C 180.832031 8.378906 180.539062 8.378906 180.242188 8.386719 C 178.433594 8.4375 176.613281 8.558594 174.78125 8.742188 C 174.476562 8.773438 174.167969 8.808594 173.863281 8.84375 C 173.386719 8.898438 172.914062 8.9375 172.433594 9 C 171.449219 9.132812 170.457031 9.328125 169.464844 9.5 C 168.820312 9.609375 168.183594 9.699219 167.539062 9.824219 C 165.546875 10.21875 163.546875 10.671875 161.539062 11.222656 C 149.441406 14.542969 137.128906 20.765625 125.289062 30.023438 C 123.566406 31.367188 121.890625 32.773438 120.238281 34.207031 C 120.066406 34.355469 119.882812 34.492188 119.710938 34.644531 C 119.441406 34.878906 119.191406 35.140625 118.925781 35.378906 C 117.355469 36.777344 115.816406 38.214844 114.3125 39.691406 C 113.976562 40.019531 113.636719 40.335938 113.304688 40.667969 C 111.574219 42.398438 109.894531 44.179688 108.253906 46.003906 C 108.117188 46.15625 107.96875 46.296875 107.828125 46.453125 C 107.507812 46.8125 107.210938 47.195312 106.890625 47.558594 C 105.976562 48.605469 105.078125 49.660156 104.195312 50.734375 C 103.703125 51.328125 103.21875 51.925781 102.738281 52.53125 C 101.863281 53.628906 101.007812 54.742188 100.160156 55.871094 C 99.867188 56.261719 99.554688 56.636719 99.265625 57.03125 C 99.125 57.222656 98.992188 57.417969 98.855469 57.613281 C 98.136719 58.597656 97.445312 59.597656 96.75 60.597656 C 96.324219 61.214844 95.886719 61.828125 95.464844 62.453125 C 94.691406 63.605469 93.945312 64.777344 93.207031 65.953125 C 92.929688 66.390625 92.636719 66.820312 92.363281 67.257812 C 92.328125 67.316406 92.296875 67.375 92.261719 67.429688 C 91.394531 68.839844 90.558594 70.265625 89.738281 71.699219 C 89.597656 71.941406 89.449219 72.175781 89.3125 72.417969 C 88.363281 74.097656 87.445312 75.796875 86.558594 77.511719 C 86.539062 77.550781 86.515625 77.589844 86.492188 77.632812 C 86.246094 78.113281 86.019531 78.605469 85.773438 79.089844 C 85.167969 80.296875 84.5625 81.5 83.984375 82.71875 C 83.664062 83.398438 83.363281 84.085938 83.054688 84.769531 C 82.5625 85.847656 82.070312 86.921875 81.605469 88.007812 C 81.542969 88.160156 81.46875 88.308594 81.40625 88.460938 C 81.179688 88.992188 80.980469 89.535156 80.757812 90.074219 C 80.285156 91.226562 79.8125 92.378906 79.367188 93.539062 C 79.078125 94.289062 78.804688 95.046875 78.527344 95.800781 C 78.121094 96.90625 77.71875 98.015625 77.339844 99.128906 C 77.226562 99.460938 77.097656 99.792969 76.984375 100.125 C 76.847656 100.53125 76.738281 100.9375 76.605469 101.34375 C 76.175781 102.671875 75.761719 104.007812 75.367188 105.34375 C 75.160156 106.046875 74.949219 106.75 74.75 107.453125 C 74.324219 108.964844 73.929688 110.480469 73.554688 111.996094 C 73.457031 112.40625 73.332031 112.808594 73.234375 113.21875 C 73.214844 113.304688 73.203125 113.390625 73.179688 113.480469 C 72.625 115.816406 72.140625 118.160156 71.703125 120.503906 C 71.59375 121.082031 71.496094 121.660156 71.394531 122.238281 C 71.039062 124.28125 70.722656 126.324219 70.457031 128.367188 C 70.417969 128.65625 70.359375 128.941406 70.324219 129.230469 C 70.308594 129.332031 70.304688 129.4375 70.292969 129.542969 C 70.023438 131.757812 69.8125 133.964844 69.648438 136.171875 C 69.605469 136.722656 69.582031 137.273438 69.546875 137.824219 C 69.441406 139.5625 69.367188 141.292969 69.332031 143.023438 C 69.316406 143.636719 69.300781 144.25 69.292969 144.863281 C 69.277344 147.058594 69.296875 149.246094 69.394531 151.421875 C 69.402344 151.578125 69.417969 151.734375 69.425781 151.890625 C 69.523438 153.914062 69.679688 155.925781 69.878906 157.925781 C 69.9375 158.542969 70.007812 159.15625 70.078125 159.769531 C 70.277344 161.488281 70.511719 163.199219 70.785156 164.894531 C 70.859375 165.351562 70.917969 165.8125 71 166.269531 C 71.363281 168.355469 71.785156 170.421875 72.269531 172.464844 C 72.382812 172.945312 72.515625 173.417969 72.632812 173.894531 C 73.042969 175.515625 73.488281 177.125 73.972656 178.714844 C 74.144531 179.28125 74.316406 179.851562 74.5 180.414062 C 75.148438 182.410156 75.832031 184.386719 76.605469 186.328125 L 160.425781 343.875 L 209.992188 366.734375 L 126.171875 209.183594 C 125.398438 207.246094 124.710938 205.269531 124.066406 203.273438 C 123.882812 202.707031 123.710938 202.140625 123.539062 201.574219 C 123.054688 199.980469 122.609375 198.375 122.199219 196.75 Z M 122.199219 196.75 " fill-opacity="1" fill-rule="nonzero"/></g><path fill="#222222" d="M 295.367188 76.871094 C 280.566406 39.699219 246.746094 24.300781 211.105469 34.082031 C 199.007812 37.402344 186.699219 43.625 174.855469 52.882812 C 128.140625 89.429688 106.328125 159.398438 126.171875 209.183594 L 209.992188 366.734375 L 295.066406 162.832031 C 304.636719 133.8125 305.585938 102.476562 295.367188 76.871094 Z M 295.367188 76.871094 " fill-opacity="1" fill-rule="nonzero"/><path fill="#ffffff" d="M 210.929688 89.777344 C 237.003906 82.621094 258.042969 101.863281 257.9375 132.761719 C 257.828125 163.644531 236.613281 194.480469 210.535156 201.636719 C 184.476562 208.789062 163.417969 189.554688 163.527344 158.671875 C 163.636719 127.773438 184.871094 96.929688 210.929688 89.777344 Z M 210.929688 89.777344 " fill-opacity="1" fill-rule="nonzero"/></svg>